HIERARCHY
ROOT Hips
{
  OFFSET 58.0398 88.6325 190.615
  CHANNELS 6 Xposition Yposition Zposition Zrotation Xrotation Yrotation
  JOINT ToSpine
  {
    OFFSET -2.69724 7.43032 -0.144315
    CHANNELS 3 Zrotation Xrotation Yrotation
    JOINT Spine
    {
      OFFSET -0.0310711 10.7595 1.96963
      CHANNELS 3 Zrotation Xrotation Yrotation
      JOINT Spine1
      {
        OFFSET 13.1342 3.43533 0.764692
        CHANNELS 3 Zrotation Xrotation Yrotation
        JOINT Neck
        {
          OFFSET 29.8703 7.82586 -0.130764
          CHANNELS 3 Zrotation Xrotation Yrotation
          JOINT Head
          {
            OFFSET 9.52751 0.295786 -0.907742
            CHANNELS 3 Zrotation Xrotation Yrotation
            End Site
            {
              OFFSET 16.4037 0.713936 2.7358
            }
          }
        }
        JOINT LeftShoulder
        {
          OFFSET 27.5574 4.95586 2.47156
          CHANNELS 3 Zrotation Xrotation Yrotation
          JOINT LeftArm
          {
            OFFSET 1.20734 -0.998971 20.1238
            CHANNELS 3 Zrotation Xrotation Yrotation
            JOINT LeftForeArm
            {
              OFFSET 26.8049 -0.0536703 -0.155908
              CHANNELS 3 Zrotation Xrotation Yrotation
              JOINT LeftHand
              {
                OFFSET 26.6817 0 0.320147
                CHANNELS 3 Zrotation Xrotation Yrotation
                End Site
                {
                  OFFSET 18.6119 0 0.382219
                }
              }
            }
          }
        }
        JOINT RightShoulder
        {
          OFFSET 27.5927 4.71444 -2.65209
          CHANNELS 3 Zrotation Xrotation Yrotation
          JOINT RightArm
          {
            OFFSET 2.83739 -1.17114 -18.7564
            CHANNELS 3 Zrotation Xrotation Yrotation
            JOINT RightForeArm
            {
              OFFSET 28.839 -0.0548439 1.22491
              CHANNELS 3 Zrotation Xrotation Yrotation
              JOINT RightHand
              {
                OFFSET 26.5114 0 -0.101894
                CHANNELS 3 Zrotation Xrotation Yrotation
                End Site
                {
                  OFFSET 18.2168 0 0
                }
              }
            }
          }
        }
      }
    }
  }
  JOINT LeftUpLeg
  {
    OFFSET -4.76168 -1.9167 -10.2353
    CHANNELS 3 Zrotation Xrotation Yrotation
    JOINT LeftLeg
    {
      OFFSET 2.55951 -42.0585 -8.02213
      CHANNELS 3 Zrotation Xrotation Yrotation
      JOINT LeftFoot
      {
        OFFSET 3.16357 -42.5282 -3.95426
        CHANNELS 3 Zrotation Xrotation Yrotation
        JOINT LeftToeBase
        {
          OFFSET 0.346054 -6.02161 12.8035
          CHANNELS 3 Zrotation Xrotation Yrotation
          End Site
          {
            OFFSET 0.134235 -1.35082 5.13018
          }
        }
      }
    }
  }
  JOINT RightUpLeg
  {
    OFFSET -4.94151 -1.41743 10.6446
    CHANNELS 3 Zrotation Xrotation Yrotation
    JOINT RightLeg
    {
      OFFSET -2.56294 -42.0364 -7.94377
      CHANNELS 3 Zrotation Xrotation Yrotation
      JOINT RightFoot
      {
        OFFSET -3.0952 -42.555 -4.02241
        CHANNELS 3 Zrotation Xrotation Yrotation
        JOINT RightToeBase
        {
          OFFSET -0.0828122 -6.13587 12.8035
          CHANNELS 3 Zrotation Xrotation Yrotation
          End Site
          {
            OFFSET -0.131328 -1.35082 5.13018
          }
        }
      }
    }
  }
}
MOTION
Frames:	15
Frame Time:	0.0333333
60.4987 90.0353 182.441 71.6297 -16.6244 -3.45696 -70.1915 0 88.8779 91.7122 68.9926 -9.71079 5.26655 17.6541 3.00688 -118.628 24.9716 158.595 -178.815 69.3137 -150.671 0.683862 -13.8486 -19.3913 -72.1185 35.2962 -144.287 8.88949 -1.20252 -96.8824 0.420957 0.000575954 0.35866 -0.836472 7.7378 24.7298 -121.311 -24.3232 70.1385 2.71007 1.97502 124.783 0.58676 0.000331093 0.0646653 -46.3397 17.7234 84.6683 -3.85368 43.4678 -15.4972 -1.95475 -14.4324 -1.23812 5.97915 -13.9662 11.702 -28.5095 -15.0183 93.2013 2.3035 45.8993 0.457958 3.06712 -3.21795 0.0780345 1.78499 -15.2909 3.13299 
60.5488 90.9207 179.578 71.7814 -18.1617 -3.98761 -70.1915 0 88.8779 90.6885 68.9706 -9.88627 5.25065 17.1577 4.58391 -117.761 25.1652 158.098 178.478 69.5326 -147.106 0.595631 -14.5564 -19.8471 -72.1494 34.8732 -145.12 10.3773 -1.31452 -96.4006 0.420957 0.000575954 0.35866 -0.665494 7.1332 23.3852 -126.294 -22.3905 71.2556 5.86988 4.0033 123.475 0.58676 0.000331093 0.0646653 -47.271 15.8041 85.805 -3.60512 43.0569 -13.3007 -1.57351 -15.1716 -1.30989 5.04957 -12.366 10.8605 -30.1901 -15.2235 94.3796 1.87826 40.4315 1.0724 1.80718 1.68893 -0.247171 1.72424 -14.6057 1.79959 
60.6685 91.7573 176.8 71.3664 -20.3817 -4.51632 -70.1915 0 88.8779 88.4928 68.8353 -6.40311 5.89877 17.3433 3.06538 -116.916 25.0705 156.141 -178.489 70.4393 -150.008 0.565783 -15.0083 -19.4578 -72.7433 34.4071 -145.532 9.27889 -1.10112 -95.9742 0.420957 0.000575954 0.35866 -0.699877 6.94074 24.2482 -129.327 -20.8789 73.3747 9.13854 6.00474 122.506 0.58676 0.000331093 0.0646653 -48.0752 14.9172 87.6919 -3.38107 42.2099 -11.8752 -2.30788 -16.3508 -1.43587 4.20808 -10.7286 9.2396 -31.4879 -15.0421 94.5655 1.32179 34.4583 2.64362 0.919449 6.58871 -0.530649 1.53228 -12.8042 0.514739 
60.7238 92.5862 174.383 71.2541 -22.0029 -5.02076 -70.1915 0 88.8779 84.2125 69.0277 -2.98193 7.03219 17.2237 4.00097 -117.272 25.4467 155.873 -176.079 70.9766 -153.151 0.553368 -15.1963 -19.3158 -72.8489 35.0441 -146.454 8.90458 -1.01078 -95.6959 0.420957 0.000575954 0.35866 -0.597495 6.68908 23.1502 -131.705 -21.5654 74.2792 10.7797 7.00324 122.152 0.58676 0.000331093 0.0646653 -48.9144 14.1661 90.0706 -3.28336 41.0092 -12.0559 -1.06947 -15.5425 -1.34133 4.02392 -10.5581 10.1611 -32.729 -15.6097 90.45 -0.749131 29.4767 8.98049 0.124442 11.0489 -0.724914 1.6533 -11.5596 -4.05911 
60.7311 93.2125 172.237 71.3746 -23.2255 -5.34576 -70.1915 0 88.8779 82.4496 68.7447 -1.45542 7.24185 16.9783 3.83294 -117.185 25.6288 155.861 -175.953 71.1855 -154.181 0.6281 -14.6121 -18.8902 -72.6824 35.1011 -146.983 9.45101 -1.06228 -95.6311 0.420957 0.000575954 0.35866 -0.71531 7.1947 24.004 -133.611 -21.1064 74.6483 12.8387 8.38226 122.161 0.58676 0.000331093 0.0646653 -49.5301 13.0552 91.3303 -3.09247 40.2665 -10.8088 -0.88514 -16.0575 -1.38635 2.75923 -8.33983 9.80525 -33.1198 -16.1534 87.3295 -0.904533 27.4462 7.03917 0.508254 12.7263 -0.945398 1.54173 -6.42452 -7.23507 
60.6701 93.762 170.161 71.6591 -24.6957 -5.34136 -70.1915 0 88.8779 83.1286 68.9433 -1.71001 6.84395 17.1928 3.87787 -117.615 26.1344 155.525 -174.231 71.7797 -157.163 0.635444 -14.4373 -19.1308 -72.3598 35.1241 -147.057 9.6216 -1.14183 -95.9727 0.420957 0.000575954 0.35866 -0.733175 7.11918 24.4048 -134.928 -20.8927 74.2743 13.424 9.05743 122.97 0.58676 0.000331093 0.0646653 -50.1956 11.935 91.7185 -2.86398 39.6438 -9.13344 -0.111506 -15.5952 -1.3374 2.76904 -8.27516 9.40586 -33.2328 -16.3089 85.0637 0.390126 29.0249 1.83322 -0.594358 11.8166 -0.617583 1.38885 -3.85399 -7.22276 
60.4726 94.2122 168.375 72.005 -26.3171 -5.7441 -70.1915 0 88.8779 84.9689 69.7482 -3.97763 5.53958 17.846 4.68545 -117.197 26.5989 155.271 -174.37 72.3479 -157.083 0.582247 -14.8062 -19.5481 -72.0961 35.0202 -146.892 9.76374 -1.26122 -96.544 0.420957 0.000575954 0.35866 -0.753187 6.7643 25.4126 -136.267 -19.214 73.6953 13.3469 9.31042 123.841 0.58676 0.000331093 0.0646653 -51.0705 10.8681 92.5958 -2.62276 38.8551 -7.44866 -0.424888 -16.1876 -1.39143 1.60355 -6.10594 8.84525 -32.671 -16.303 82.5597 1.05236 33.5534 -1.93609 -3.10169 8.72061 0.114289 0.83117 -5.48283 -1.55092 
60.3028 94.6292 166.738 72.43 -27.9427 -5.93219 -70.1915 0 88.8779 86.0675 70.2484 -4.90303 5.16807 18.3781 4.71908 -117.119 26.8005 155.183 -173.33 72.6019 -158.241 0.558264 -14.9323 -19.8103 -72.4415 34.8477 -146.336 9.17474 -1.26666 -97.0318 0.420957 0.000575954 0.35866 -0.796986 6.55138 26.5663 -137.391 -18.8676 73.5477 14.2581 10.0817 124.135 0.58676 0.000331093 0.0646653 -52.1731 10.1479 93.5913 -2.45918 37.7545 -6.74622 0.0666834 -15.9193 -1.36228 1.31781 -5.75507 9.44092 -31.8915 -16.1514 80.3789 0.966624 39.1525 -4.94891 -4.98523 6.74558 0.5652 0.587584 -8.50685 4.83771 
60.3069 94.9975 165.449 72.8994 -28.7159 -5.76873 -70.1915 0 88.8779 87.6831 70.3515 -7.12766 3.87107 18.0848 6.32914 -116.727 27.5195 156.715 -175.16 72.7718 -156.318 0.523152 -14.8596 -20.8186 -72.1256 35.2932 -144.727 10.2382 -1.66155 -98.3338 0.420957 0.000575954 0.35866 -0.822653 6.63771 26.768 -137.168 -18.831 73.1936 14.5717 10.4158 124.396 0.58676 0.000331093 0.0646653 -53.0095 9.57647 94.1588 -2.41881 36.9094 -6.96776 0.694953 -15.5555 -1.32699 1.2581 -6.06981 11.0915 -31.9113 -15.9927 79.2367 1.31395 43.409 -4.54278 -3.91895 4.90408 0.444015 0.956996 -9.42261 2.19688 
60.4116 95.2866 164.356 73.1362 -28.7908 -5.52521 -70.1915 0 88.8779 85.5966 70.3475 -4.7698 4.53625 18.083 6.24372 -116.673 27.6896 156.854 -175.913 72.8668 -155.651 0.502801 -14.9995 -20.9243 -71.595 35.6944 -144.578 10.0261 -1.72992 -98.8869 0.420957 0.000575954 0.35866 -0.832261 6.29452 27.7621 -137.264 -18.4232 72.93 14.5528 10.4007 124.393 0.58676 0.000331093 0.0646653 -53.3417 8.81116 93.9185 -2.39392 36.3139 -7.15872 0.684634 -15.3426 -1.31088 1.30981 -6.64428 13.1327 -32.4186 -16.4834 77.472 1.62055 46.1596 -4.0815 -4.42731 3.97334 0.567128 1.21328 -10.9024 1.56695 
60.5034 95.3867 163.492 73.5442 -28.5062 -5.11499 -70.1915 0 88.8779 84.0846 70.1786 -3.32143 5.01626 17.8287 6.56005 -116.56 28.0619 156.794 -175.84 73.2509 -155.893 0.497212 -14.9959 -21.062 -71.0417 36.2241 -144.345 10.6012 -1.93087 -99.3961 0.420957 0.000575954 0.35866 -0.891843 6.25308 28.8465 -136.331 -17.9845 72.912 13.8271 9.87508 124.427 0.58676 0.000331093 0.0646653 -53.457 8.27851 93.607 -2.38658 36.3403 -7.10568 0.28814 -15.4231 -1.32002 1.73643 -7.30901 13.0118 -33.5982 -16.9935 76.0571 1.56993 46.7687 -4.81209 -4.96855 3.5395 0.670475 1.35643 -12.5804 3.27539 
60.6609 95.4437 162.797 73.6935 -28.2839 -4.77107 -70.1915 0 88.8779 82.123 69.5974 -0.5453 5.9452 17.4876 5.69265 -118.035 28.5991 158.056 -178.343 73.0838 -154.727 0.600815 -14.2425 -20.5916 -69.7461 36.8197 -145.269 11.9374 -2.21984 -99.5818 0.420957 0.000575954 0.35866 -0.953077 6.6187 28.8442 -135.569 -19.0049 72.2105 13.9472 9.87258 124.187 0.58676 0.000331093 0.0646653 -53.2209 7.90511 93.3158 -2.40092 36.6889 -7.00718 0.558325 -15.7586 -1.34389 1.51853 -6.9282 12.8912 -35.0241 -17.0993 75.4589 1.36747 44.3915 -4.76267 -2.13462 3.32494 0.228876 1.0456 -10.636 3.41248 
60.8078 95.4244 162.264 73.6931 -28.5836 -5.09149 -70.1915 0 88.8779 79.2025 69.55 2.38649 6.87452 17.547 5.53646 -119.356 29.1399 159.567 178.563 72.8223 -152.135 0.628135 -13.9068 -20.8779 -69.7679 36.5499 -145.857 11.9935 -2.23497 -99.6018 0.420957 0.000575954 0.35866 -0.976687 6.91284 28.4593 -135.361 -20.0974 71.6965 13.2525 9.22092 123.787 0.58676 0.000331093 0.0646653 -53.0725 7.05517 93.0001 -2.33755 37.0143 -6.15265 0.123987 -16.2901 -1.39178 0.5402 -5.34084 12.9337 -35.5164 -17.2694 75.8763 0.928688 42.6139 -6.78151 -1.01955 3.7546 0.0228761 0.452317 -9.8504 9.39715 
60.8006 95.4014 161.697 73.6194 -28.6919 -4.86441 -70.1915 0 88.8779 79.1126 69.36 3.26348 7.05146 17.5638 4.84677 -120.088 29.247 159.189 178.241 72.9469 -152.208 0.670697 -13.6686 -20.3777 -68.3283 37.396 -146.163 12.4506 -2.46467 -100.213 0.420957 0.000575954 0.35866 -1.04753 6.98987 29.3183 -135.245 -20.1743 71.7335 12.5356 8.58211 123.412 0.58676 0.000331093 0.0646653 -52.4308 6.94245 92.7682 -2.31012 37.6825 -5.45258 0.13984 -16.6893 -1.42404 -0.106696 -3.82915 11.3664 -35.9977 -17.1703 75.4634 0.941167 41.3288 -6.12903 -1.66466 4.62686 0.0735263 0.734221 -10.7609 8.11565 
60.7082 95.3569 161.168 73.7741 -28.9917 -4.79344 -70.1915 0 88.8779 79.9602 69.6505 2.24016 6.72496 17.6885 5.50242 -120.778 29.655 159.758 176.848 73.0004 -150.829 0.64087 -13.7797 -20.9266 -68.3274 36.9524 -146.165 12.5764 -2.50986 -100.296 0.420957 0.000575954 0.35866 -1.08548 7.16749 29.4243 -135.653 -20.1327 71.223 13.2614 8.848 122.705 0.58676 0.000331093 0.0646653 -52.1044 6.89025 93.1571 -2.30008 38.1712 -5.06444 1.185 -15.7744 -1.33835 0.926535 -4.85463 8.66541 -36.3408 -16.7412 76.141 0.900459 40.2789 -6.00483 -0.80023 4.46159 -0.0618502 0.665675 -9.37201 5.64004 
